<mxfile host="app.diagrams.net" modified="2023-11-09T21:04:00.897Z" agent="Mozilla/5.0 (X11; Linux x86_64) AppleWebKit/537.36 (KHTML, like Gecko) Chrome/117.0.0.0 Safari/537.36" etag="OzOZjqNdbflzuUY3zHXT" version="22.1.0" type="device">
  <diagram name="Page-1" id="i1XOwQ2CWmMopVxJM64C">
    <mxGraphModel dx="10366" dy="991" grid="1" gridSize="10" guides="1" tooltips="1" connect="1" arrows="1" fold="1" page="1" pageScale="1" pageWidth="850" pageHeight="1100" math="0" shadow="0">
      <root>
        <mxCell id="0" />
        <mxCell id="1" parent="0" />
        <mxCell id="VzrVMN0Bxp8ACoTBztBd-1" value="" style="html=1;dashed=0;whiteSpace=wrap;" parent="1" vertex="1">
          <mxGeometry x="-5000" y="1422.5" width="1090" height="309" as="geometry" />
        </mxCell>
        <mxCell id="VzrVMN0Bxp8ACoTBztBd-2" style="edgeStyle=orthogonalEdgeStyle;rounded=0;orthogonalLoop=1;jettySize=auto;html=1;entryX=0;entryY=0.5;entryDx=0;entryDy=0;" parent="1" source="VzrVMN0Bxp8ACoTBztBd-3" target="VzrVMN0Bxp8ACoTBztBd-5" edge="1">
          <mxGeometry relative="1" as="geometry" />
        </mxCell>
        <mxCell id="VzrVMN0Bxp8ACoTBztBd-3" value="Is the drone &lt;br&gt;a border candidate" style="shape=rhombus;html=1;dashed=0;whiteSpace=wrap;perimeter=rhombusPerimeter;" parent="1" vertex="1">
          <mxGeometry x="-4980" y="1431.5" width="140" height="120" as="geometry" />
        </mxCell>
        <mxCell id="VzrVMN0Bxp8ACoTBztBd-4" style="edgeStyle=orthogonalEdgeStyle;rounded=0;orthogonalLoop=1;jettySize=auto;html=1;" parent="1" source="VzrVMN0Bxp8ACoTBztBd-5" target="VzrVMN0Bxp8ACoTBztBd-8" edge="1">
          <mxGeometry relative="1" as="geometry" />
        </mxCell>
        <mxCell id="VzrVMN0Bxp8ACoTBztBd-5" value="decode_spot_info_message" style="html=1;dashed=0;whiteSpace=wrap;" parent="1" vertex="1">
          <mxGeometry x="-4760" y="1464.5" width="210" height="55" as="geometry" />
        </mxCell>
        <mxCell id="VzrVMN0Bxp8ACoTBztBd-6" value="YES" style="text;html=1;align=center;verticalAlign=middle;resizable=0;points=[];autosize=1;strokeColor=none;fillColor=none;" parent="1" vertex="1">
          <mxGeometry x="-4850" y="1464.5" width="50" height="30" as="geometry" />
        </mxCell>
        <mxCell id="VzrVMN0Bxp8ACoTBztBd-7" style="edgeStyle=orthogonalEdgeStyle;rounded=0;orthogonalLoop=1;jettySize=auto;html=1;" parent="1" source="VzrVMN0Bxp8ACoTBztBd-8" target="VzrVMN0Bxp8ACoTBztBd-10" edge="1">
          <mxGeometry relative="1" as="geometry" />
        </mxCell>
        <mxCell id="VzrVMN0Bxp8ACoTBztBd-8" value="spot_info_update_neighbors_list" style="html=1;dashed=0;whiteSpace=wrap;" parent="1" vertex="1">
          <mxGeometry x="-4480" y="1464.5" width="240" height="57" as="geometry" />
        </mxCell>
        <mxCell id="VzrVMN0Bxp8ACoTBztBd-9" style="edgeStyle=orthogonalEdgeStyle;rounded=0;orthogonalLoop=1;jettySize=auto;html=1;entryX=0;entryY=0.5;entryDx=0;entryDy=0;" parent="1" source="VzrVMN0Bxp8ACoTBztBd-10" target="VzrVMN0Bxp8ACoTBztBd-12" edge="1">
          <mxGeometry relative="1" as="geometry">
            <Array as="points">
              <mxPoint x="-3920" y="1493.5" />
              <mxPoint x="-3920" y="1581.5" />
              <mxPoint x="-4970" y="1581.5" />
              <mxPoint x="-4970" y="1661.5" />
            </Array>
          </mxGeometry>
        </mxCell>
        <mxCell id="VzrVMN0Bxp8ACoTBztBd-10" value="check_border_candidate_eligibility&lt;br&gt;Based on neigbor_list no commuincation needed" style="html=1;dashed=0;whiteSpace=wrap;" parent="1" vertex="1">
          <mxGeometry x="-4180" y="1463.5" width="230" height="60" as="geometry" />
        </mxCell>
        <mxCell id="VzrVMN0Bxp8ACoTBztBd-11" style="edgeStyle=orthogonalEdgeStyle;rounded=0;orthogonalLoop=1;jettySize=auto;html=1;" parent="1" target="VzrVMN0Bxp8ACoTBztBd-14" edge="1">
          <mxGeometry relative="1" as="geometry">
            <mxPoint x="-4805" y="1661.5" as="sourcePoint" />
          </mxGeometry>
        </mxCell>
        <mxCell id="VzrVMN0Bxp8ACoTBztBd-12" value="Still the drone &lt;br&gt;a border candidate" style="shape=rhombus;html=1;dashed=0;whiteSpace=wrap;perimeter=rhombusPerimeter;" parent="1" vertex="1">
          <mxGeometry x="-4947" y="1601.5" width="140" height="120" as="geometry" />
        </mxCell>
        <mxCell id="VzrVMN0Bxp8ACoTBztBd-13" style="edgeStyle=orthogonalEdgeStyle;rounded=0;orthogonalLoop=1;jettySize=auto;html=1;entryX=0;entryY=0.5;entryDx=0;entryDy=0;" parent="1" source="VzrVMN0Bxp8ACoTBztBd-14" edge="1">
          <mxGeometry relative="1" as="geometry">
            <mxPoint x="-4565" y="1661" as="targetPoint" />
          </mxGeometry>
        </mxCell>
        <mxCell id="VzrVMN0Bxp8ACoTBztBd-14" value="change_state_to(Free)" style="html=1;dashed=0;whiteSpace=wrap;" parent="1" vertex="1">
          <mxGeometry x="-4755" y="1641" width="150" height="40" as="geometry" />
        </mxCell>
        <mxCell id="VzrVMN0Bxp8ACoTBztBd-15" value="NO" style="text;html=1;align=center;verticalAlign=middle;resizable=0;points=[];autosize=1;strokeColor=none;fillColor=none;" parent="1" vertex="1">
          <mxGeometry x="-4810" y="1634" width="40" height="30" as="geometry" />
        </mxCell>
        <mxCell id="VzrVMN0Bxp8ACoTBztBd-16" style="edgeStyle=orthogonalEdgeStyle;rounded=0;orthogonalLoop=1;jettySize=auto;html=1;" parent="1" source="VzrVMN0Bxp8ACoTBztBd-17" target="VzrVMN0Bxp8ACoTBztBd-20" edge="1">
          <mxGeometry relative="1" as="geometry" />
        </mxCell>
        <mxCell id="VzrVMN0Bxp8ACoTBztBd-17" value="Is rec_candidate&lt;br&gt;empty" style="shape=rhombus;html=1;dashed=0;whiteSpace=wrap;perimeter=rhombusPerimeter;" parent="1" vertex="1">
          <mxGeometry x="-4588" y="1606" width="120" height="110" as="geometry" />
        </mxCell>
        <mxCell id="VzrVMN0Bxp8ACoTBztBd-18" value="NO" style="text;html=1;align=center;verticalAlign=middle;resizable=0;points=[];autosize=1;strokeColor=none;fillColor=none;" parent="1" vertex="1">
          <mxGeometry x="-4480" y="1634.5" width="40" height="30" as="geometry" />
        </mxCell>
        <mxCell id="VzrVMN0Bxp8ACoTBztBd-19" style="edgeStyle=orthogonalEdgeStyle;rounded=0;orthogonalLoop=1;jettySize=auto;html=1;" parent="1" source="VzrVMN0Bxp8ACoTBztBd-20" target="VzrVMN0Bxp8ACoTBztBd-21" edge="1">
          <mxGeometry relative="1" as="geometry" />
        </mxCell>
        <mxCell id="VzrVMN0Bxp8ACoTBztBd-20" value="build_inherit_message" style="html=1;dashed=0;whiteSpace=wrap;" parent="1" vertex="1">
          <mxGeometry x="-4400" y="1631" width="190" height="60" as="geometry" />
        </mxCell>
        <mxCell id="VzrVMN0Bxp8ACoTBztBd-21" value="send_msg" style="html=1;dashed=0;whiteSpace=wrap;" parent="1" vertex="1">
          <mxGeometry x="-4150" y="1634" width="120" height="54" as="geometry" />
        </mxCell>
        <mxCell id="VzrVMN0Bxp8ACoTBztBd-22" value="&lt;font style=&quot;font-size: 18px;&quot;&gt;handel_broken_into_spot&lt;/font&gt;" style="text;html=1;align=center;verticalAlign=middle;resizable=0;points=[];autosize=1;strokeColor=none;fillColor=none;" parent="1" vertex="1">
          <mxGeometry x="-5010" y="1382.5" width="230" height="40" as="geometry" />
        </mxCell>
        <mxCell id="VzrVMN0Bxp8ACoTBztBd-23" value="" style="group" parent="1" vertex="1" connectable="0">
          <mxGeometry x="-5010" y="1751.5" width="210" height="190" as="geometry" />
        </mxCell>
        <mxCell id="VzrVMN0Bxp8ACoTBztBd-24" value="Create message contains:&lt;br&gt;&lt;div style=&quot;text-align: left;&quot;&gt;&lt;span style=&quot;background-color: initial;&quot;&gt;-&amp;nbsp;Inherit_header&lt;/span&gt;&lt;span style=&quot;background-color: initial;&quot;&gt;: &quot;I&quot;&lt;/span&gt;&lt;/div&gt;&lt;div style=&quot;text-align: left;&quot;&gt;&lt;span style=&quot;background-color: initial;&quot;&gt;-&amp;nbsp;rec_candidate&lt;/span&gt;&lt;/div&gt;&lt;div style=&quot;text-align: left;&quot;&gt;&lt;span style=&quot;background-color: initial;&quot;&gt;-&amp;nbsp;rec_propagation_indicator&lt;/span&gt;&lt;/div&gt;&lt;div style=&quot;text-align: left;&quot;&gt;&lt;span style=&quot;background-color: initial;&quot;&gt;-&amp;nbsp;&amp;nbsp;id_rec&lt;/span&gt;&lt;span style=&quot;background-color: initial;&quot;&gt;&amp;nbsp;( targeted id)&amp;nbsp;&lt;/span&gt;&lt;/div&gt;" style="html=1;dashed=0;whiteSpace=wrap;" parent="VzrVMN0Bxp8ACoTBztBd-23" vertex="1">
          <mxGeometry x="17.5" y="40" width="175" height="150" as="geometry" />
        </mxCell>
        <mxCell id="VzrVMN0Bxp8ACoTBztBd-25" value="&lt;font style=&quot;font-size: 18px;&quot;&gt;build_inherit_message&lt;/font&gt;" style="text;html=1;align=center;verticalAlign=middle;resizable=0;points=[];autosize=1;strokeColor=none;fillColor=none;" parent="VzrVMN0Bxp8ACoTBztBd-23" vertex="1">
          <mxGeometry x="8" y="10" width="200" height="40" as="geometry" />
        </mxCell>
        <mxCell id="VzrVMN0Bxp8ACoTBztBd-26" value="" style="group" parent="1" vertex="1" connectable="0">
          <mxGeometry x="-4760" y="1751.5" width="239" height="190" as="geometry" />
        </mxCell>
        <mxCell id="VzrVMN0Bxp8ACoTBztBd-27" value="Take message return:&lt;br&gt;&lt;div style=&quot;text-align: left;&quot;&gt;-&amp;nbsp;&lt;span style=&quot;text-align: center;&quot;&gt;rec_candidate&lt;/span&gt;&lt;br style=&quot;border-color: var(--border-color); text-align: center;&quot;&gt;&lt;span style=&quot;text-align: center;&quot;&gt;-&amp;nbsp;&lt;/span&gt;&lt;span style=&quot;text-align: center;&quot;&gt;rec_propagation_indicator&lt;/span&gt;&lt;br style=&quot;border-color: var(--border-color); text-align: center;&quot;&gt;&lt;span style=&quot;text-align: center;&quot;&gt;-&amp;nbsp;&amp;nbsp;&lt;/span&gt;&lt;span style=&quot;text-align: center;&quot;&gt;id_rec&lt;/span&gt;&lt;br&gt;&lt;/div&gt;" style="html=1;dashed=0;whiteSpace=wrap;" parent="VzrVMN0Bxp8ACoTBztBd-26" vertex="1">
          <mxGeometry x="27.5" y="40" width="175" height="150" as="geometry" />
        </mxCell>
        <mxCell id="VzrVMN0Bxp8ACoTBztBd-28" value="&lt;font style=&quot;font-size: 18px;&quot;&gt;decode_inherit_message&lt;/font&gt;" style="text;html=1;align=center;verticalAlign=middle;resizable=0;points=[];autosize=1;strokeColor=none;fillColor=none;" parent="VzrVMN0Bxp8ACoTBztBd-26" vertex="1">
          <mxGeometry x="19" y="10" width="220" height="40" as="geometry" />
        </mxCell>
        <mxCell id="VzrVMN0Bxp8ACoTBztBd-29" value="" style="html=1;dashed=0;whiteSpace=wrap;" parent="1" vertex="1">
          <mxGeometry x="-4165" y="2055.5" width="430" height="85" as="geometry" />
        </mxCell>
        <mxCell id="VzrVMN0Bxp8ACoTBztBd-30" value="" style="group" parent="1" vertex="1" connectable="0">
          <mxGeometry x="-5000" y="2010" width="790" height="145" as="geometry" />
        </mxCell>
        <mxCell id="VzrVMN0Bxp8ACoTBztBd-31" value="" style="html=1;dashed=0;whiteSpace=wrap;" parent="VzrVMN0Bxp8ACoTBztBd-30" vertex="1">
          <mxGeometry x="10" y="35" width="780" height="110" as="geometry" />
        </mxCell>
        <mxCell id="VzrVMN0Bxp8ACoTBztBd-32" value="decode_spot_info_message" style="rounded=0;whiteSpace=wrap;html=1;" parent="VzrVMN0Bxp8ACoTBztBd-30" vertex="1">
          <mxGeometry x="20" y="60" width="190" height="60" as="geometry" />
        </mxCell>
        <mxCell id="VzrVMN0Bxp8ACoTBztBd-33" value="recived id &lt;br&gt;== the current id&amp;nbsp;&lt;br&gt;( targeted)&amp;nbsp;" style="shape=rhombus;html=1;dashed=0;whiteSpace=wrap;perimeter=rhombusPerimeter;" parent="VzrVMN0Bxp8ACoTBztBd-30" vertex="1">
          <mxGeometry x="250" y="40" width="125" height="100" as="geometry" />
        </mxCell>
        <mxCell id="VzrVMN0Bxp8ACoTBztBd-34" style="edgeStyle=orthogonalEdgeStyle;rounded=0;orthogonalLoop=1;jettySize=auto;html=1;" parent="VzrVMN0Bxp8ACoTBztBd-30" source="VzrVMN0Bxp8ACoTBztBd-32" target="VzrVMN0Bxp8ACoTBztBd-33" edge="1">
          <mxGeometry relative="1" as="geometry" />
        </mxCell>
        <mxCell id="VzrVMN0Bxp8ACoTBztBd-35" value="update_rec_candidate" style="html=1;dashed=0;whiteSpace=wrap;" parent="VzrVMN0Bxp8ACoTBztBd-30" vertex="1">
          <mxGeometry x="418.5" y="65" width="127" height="50" as="geometry" />
        </mxCell>
        <mxCell id="VzrVMN0Bxp8ACoTBztBd-36" style="edgeStyle=orthogonalEdgeStyle;rounded=0;orthogonalLoop=1;jettySize=auto;html=1;" parent="VzrVMN0Bxp8ACoTBztBd-30" source="VzrVMN0Bxp8ACoTBztBd-33" target="VzrVMN0Bxp8ACoTBztBd-35" edge="1">
          <mxGeometry relative="1" as="geometry" />
        </mxCell>
        <mxCell id="VzrVMN0Bxp8ACoTBztBd-37" value="update_rec_propagation_indicator" style="html=1;dashed=0;whiteSpace=wrap;" parent="VzrVMN0Bxp8ACoTBztBd-30" vertex="1">
          <mxGeometry x="580" y="65" width="200" height="50" as="geometry" />
        </mxCell>
        <mxCell id="VzrVMN0Bxp8ACoTBztBd-38" style="edgeStyle=orthogonalEdgeStyle;rounded=0;orthogonalLoop=1;jettySize=auto;html=1;" parent="VzrVMN0Bxp8ACoTBztBd-30" source="VzrVMN0Bxp8ACoTBztBd-35" target="VzrVMN0Bxp8ACoTBztBd-37" edge="1">
          <mxGeometry relative="1" as="geometry" />
        </mxCell>
        <mxCell id="VzrVMN0Bxp8ACoTBztBd-39" value="YES" style="text;html=1;align=center;verticalAlign=middle;resizable=0;points=[];autosize=1;strokeColor=none;fillColor=none;" parent="VzrVMN0Bxp8ACoTBztBd-30" vertex="1">
          <mxGeometry x="365" y="65" width="50" height="30" as="geometry" />
        </mxCell>
        <mxCell id="VzrVMN0Bxp8ACoTBztBd-40" value="&lt;font style=&quot;font-size: 18px;&quot;&gt;handel_inheritence_message&lt;/font&gt;" style="text;html=1;align=center;verticalAlign=middle;resizable=0;points=[];autosize=1;strokeColor=none;fillColor=none;" parent="VzrVMN0Bxp8ACoTBztBd-30" vertex="1">
          <mxGeometry width="260" height="40" as="geometry" />
        </mxCell>
        <mxCell id="VzrVMN0Bxp8ACoTBztBd-41" value="search in current&amp;nbsp;rec_candidate&lt;br&gt;if new_rec_candidate&amp;nbsp;&amp;nbsp;is there&amp;nbsp;&amp;nbsp;" style="html=1;dashed=0;whiteSpace=wrap;" parent="1" vertex="1">
          <mxGeometry x="-4160" y="2067" width="140" height="60" as="geometry" />
        </mxCell>
        <mxCell id="VzrVMN0Bxp8ACoTBztBd-42" value="Found" style="shape=rhombus;html=1;dashed=0;whiteSpace=wrap;perimeter=rhombusPerimeter;" parent="1" vertex="1">
          <mxGeometry x="-3990" y="2063" width="85" height="70" as="geometry" />
        </mxCell>
        <mxCell id="VzrVMN0Bxp8ACoTBztBd-43" style="edgeStyle=orthogonalEdgeStyle;rounded=0;orthogonalLoop=1;jettySize=auto;html=1;entryX=0.071;entryY=0.476;entryDx=0;entryDy=0;entryPerimeter=0;" parent="1" source="VzrVMN0Bxp8ACoTBztBd-41" target="VzrVMN0Bxp8ACoTBztBd-42" edge="1">
          <mxGeometry relative="1" as="geometry" />
        </mxCell>
        <mxCell id="VzrVMN0Bxp8ACoTBztBd-44" value="add the recived&lt;br&gt;new_rec_candidate&amp;nbsp;" style="html=1;dashed=0;whiteSpace=wrap;" parent="1" vertex="1">
          <mxGeometry x="-3860" y="2077" width="120" height="50" as="geometry" />
        </mxCell>
        <mxCell id="VzrVMN0Bxp8ACoTBztBd-45" style="edgeStyle=orthogonalEdgeStyle;rounded=0;orthogonalLoop=1;jettySize=auto;html=1;entryX=-0.019;entryY=0.416;entryDx=0;entryDy=0;entryPerimeter=0;" parent="1" source="VzrVMN0Bxp8ACoTBztBd-42" target="VzrVMN0Bxp8ACoTBztBd-44" edge="1">
          <mxGeometry relative="1" as="geometry" />
        </mxCell>
        <mxCell id="VzrVMN0Bxp8ACoTBztBd-46" value="NO" style="text;html=1;align=center;verticalAlign=middle;resizable=0;points=[];autosize=1;strokeColor=none;fillColor=none;" parent="1" vertex="1">
          <mxGeometry x="-3910" y="2074.5" width="40" height="30" as="geometry" />
        </mxCell>
        <mxCell id="VzrVMN0Bxp8ACoTBztBd-47" value="&lt;font style=&quot;font-size: 18px;&quot;&gt;update_rec_candidate&lt;/font&gt;" style="text;html=1;align=center;verticalAlign=middle;resizable=0;points=[];autosize=1;strokeColor=none;fillColor=none;" parent="1" vertex="1">
          <mxGeometry x="-4175" y="2023" width="200" height="40" as="geometry" />
        </mxCell>
        <mxCell id="VzrVMN0Bxp8ACoTBztBd-48" value="" style="html=1;dashed=0;whiteSpace=wrap;" parent="1" vertex="1">
          <mxGeometry x="-3710" y="2055.5" width="500" height="81.5" as="geometry" />
        </mxCell>
        <mxCell id="VzrVMN0Bxp8ACoTBztBd-49" value="search in current&amp;nbsp;rec_candidate&lt;br&gt;if new_rec_propagation_indicator&lt;br&gt;&amp;nbsp; is there&amp;nbsp;&amp;nbsp;" style="html=1;dashed=0;whiteSpace=wrap;" parent="1" vertex="1">
          <mxGeometry x="-3705" y="2067" width="185" height="60" as="geometry" />
        </mxCell>
        <mxCell id="VzrVMN0Bxp8ACoTBztBd-50" value="Found" style="shape=rhombus;html=1;dashed=0;whiteSpace=wrap;perimeter=rhombusPerimeter;" parent="1" vertex="1">
          <mxGeometry x="-3500" y="2063" width="85" height="70" as="geometry" />
        </mxCell>
        <mxCell id="VzrVMN0Bxp8ACoTBztBd-51" style="edgeStyle=orthogonalEdgeStyle;rounded=0;orthogonalLoop=1;jettySize=auto;html=1;entryX=0.071;entryY=0.476;entryDx=0;entryDy=0;entryPerimeter=0;" parent="1" source="VzrVMN0Bxp8ACoTBztBd-49" target="VzrVMN0Bxp8ACoTBztBd-50" edge="1">
          <mxGeometry relative="1" as="geometry" />
        </mxCell>
        <mxCell id="VzrVMN0Bxp8ACoTBztBd-52" value="add the recived&lt;br&gt;new_rec_propagation&lt;br&gt;_indicator&amp;nbsp;" style="html=1;dashed=0;whiteSpace=wrap;" parent="1" vertex="1">
          <mxGeometry x="-3370" y="2077" width="150" height="50" as="geometry" />
        </mxCell>
        <mxCell id="VzrVMN0Bxp8ACoTBztBd-53" style="edgeStyle=orthogonalEdgeStyle;rounded=0;orthogonalLoop=1;jettySize=auto;html=1;entryX=-0.019;entryY=0.416;entryDx=0;entryDy=0;entryPerimeter=0;" parent="1" source="VzrVMN0Bxp8ACoTBztBd-50" target="VzrVMN0Bxp8ACoTBztBd-52" edge="1">
          <mxGeometry relative="1" as="geometry" />
        </mxCell>
        <mxCell id="VzrVMN0Bxp8ACoTBztBd-54" value="NO" style="text;html=1;align=center;verticalAlign=middle;resizable=0;points=[];autosize=1;strokeColor=none;fillColor=none;" parent="1" vertex="1">
          <mxGeometry x="-3420" y="2072" width="40" height="30" as="geometry" />
        </mxCell>
        <mxCell id="VzrVMN0Bxp8ACoTBztBd-55" value="&lt;font style=&quot;font-size: 18px;&quot;&gt;update_rec_propagation_indicator&lt;/font&gt;" style="text;html=1;align=center;verticalAlign=middle;resizable=0;points=[];autosize=1;strokeColor=none;fillColor=none;" parent="1" vertex="1">
          <mxGeometry x="-3720" y="2023" width="300" height="40" as="geometry" />
        </mxCell>
        <mxCell id="VzrVMN0Bxp8ACoTBztBd-56" value="" style="group" parent="1" vertex="1" connectable="0">
          <mxGeometry x="-5000" y="2200" width="682" height="180" as="geometry" />
        </mxCell>
        <mxCell id="VzrVMN0Bxp8ACoTBztBd-57" value="" style="html=1;dashed=0;whiteSpace=wrap;" parent="VzrVMN0Bxp8ACoTBztBd-56" vertex="1">
          <mxGeometry x="12" y="30" width="670" height="150" as="geometry" />
        </mxCell>
        <mxCell id="VzrVMN0Bxp8ACoTBztBd-58" value="Rec-candiant &lt;br&gt;of the broacast&amp;nbsp;&lt;br&gt;in&amp;nbsp;rec_candidate" style="shape=rhombus;html=1;dashed=0;whiteSpace=wrap;perimeter=rhombusPerimeter;" parent="VzrVMN0Bxp8ACoTBztBd-56" vertex="1">
          <mxGeometry x="20" y="40" width="140" height="120" as="geometry" />
        </mxCell>
        <mxCell id="VzrVMN0Bxp8ACoTBztBd-59" value="check_border_candidate_eligibility" style="html=1;dashed=0;whiteSpace=wrap;" parent="VzrVMN0Bxp8ACoTBztBd-56" vertex="1">
          <mxGeometry x="213" y="75" width="214" height="50" as="geometry" />
        </mxCell>
        <mxCell id="VzrVMN0Bxp8ACoTBztBd-60" style="edgeStyle=orthogonalEdgeStyle;rounded=0;orthogonalLoop=1;jettySize=auto;html=1;entryX=0;entryY=0.5;entryDx=0;entryDy=0;" parent="VzrVMN0Bxp8ACoTBztBd-56" source="VzrVMN0Bxp8ACoTBztBd-58" target="VzrVMN0Bxp8ACoTBztBd-59" edge="1">
          <mxGeometry relative="1" as="geometry" />
        </mxCell>
        <mxCell id="VzrVMN0Bxp8ACoTBztBd-61" value="YES" style="text;html=1;align=center;verticalAlign=middle;resizable=0;points=[];autosize=1;strokeColor=none;fillColor=none;" parent="VzrVMN0Bxp8ACoTBztBd-56" vertex="1">
          <mxGeometry x="150" y="75" width="50" height="30" as="geometry" />
        </mxCell>
        <mxCell id="VzrVMN0Bxp8ACoTBztBd-62" value="Still border&lt;br&gt;candidate" style="shape=rhombus;html=1;dashed=0;whiteSpace=wrap;perimeter=rhombusPerimeter;" parent="VzrVMN0Bxp8ACoTBztBd-56" vertex="1">
          <mxGeometry x="457.5" y="65" width="80" height="70" as="geometry" />
        </mxCell>
        <mxCell id="VzrVMN0Bxp8ACoTBztBd-63" style="edgeStyle=orthogonalEdgeStyle;rounded=0;orthogonalLoop=1;jettySize=auto;html=1;entryX=0;entryY=0.5;entryDx=0;entryDy=0;" parent="VzrVMN0Bxp8ACoTBztBd-56" source="VzrVMN0Bxp8ACoTBztBd-59" target="VzrVMN0Bxp8ACoTBztBd-62" edge="1">
          <mxGeometry relative="1" as="geometry" />
        </mxCell>
        <mxCell id="VzrVMN0Bxp8ACoTBztBd-64" value="change_state_to&lt;br&gt;(Border)&amp;nbsp;" style="html=1;dashed=0;whiteSpace=wrap;" parent="VzrVMN0Bxp8ACoTBztBd-56" vertex="1">
          <mxGeometry x="575" y="55" width="100" height="50" as="geometry" />
        </mxCell>
        <mxCell id="VzrVMN0Bxp8ACoTBztBd-65" value="change_state_to&lt;br&gt;(Free&lt;span style=&quot;background-color: initial;&quot;&gt;)&amp;nbsp;&lt;/span&gt;" style="html=1;dashed=0;whiteSpace=wrap;" parent="VzrVMN0Bxp8ACoTBztBd-56" vertex="1">
          <mxGeometry x="575" y="125" width="100" height="50" as="geometry" />
        </mxCell>
        <mxCell id="VzrVMN0Bxp8ACoTBztBd-66" style="edgeStyle=orthogonalEdgeStyle;rounded=0;orthogonalLoop=1;jettySize=auto;html=1;entryX=0;entryY=0.5;entryDx=0;entryDy=0;" parent="VzrVMN0Bxp8ACoTBztBd-56" source="VzrVMN0Bxp8ACoTBztBd-62" target="VzrVMN0Bxp8ACoTBztBd-65" edge="1">
          <mxGeometry relative="1" as="geometry">
            <Array as="points">
              <mxPoint x="498" y="150" />
            </Array>
          </mxGeometry>
        </mxCell>
        <mxCell id="VzrVMN0Bxp8ACoTBztBd-67" style="edgeStyle=orthogonalEdgeStyle;rounded=0;orthogonalLoop=1;jettySize=auto;html=1;entryX=-0.019;entryY=0.609;entryDx=0;entryDy=0;entryPerimeter=0;" parent="VzrVMN0Bxp8ACoTBztBd-56" source="VzrVMN0Bxp8ACoTBztBd-62" target="VzrVMN0Bxp8ACoTBztBd-64" edge="1">
          <mxGeometry relative="1" as="geometry" />
        </mxCell>
        <mxCell id="VzrVMN0Bxp8ACoTBztBd-68" value="YES" style="text;html=1;align=center;verticalAlign=middle;resizable=0;points=[];autosize=1;strokeColor=none;fillColor=none;" parent="VzrVMN0Bxp8ACoTBztBd-56" vertex="1">
          <mxGeometry x="520" y="55" width="50" height="30" as="geometry" />
        </mxCell>
        <mxCell id="VzrVMN0Bxp8ACoTBztBd-69" value="NO" style="text;html=1;align=center;verticalAlign=middle;resizable=0;points=[];autosize=1;strokeColor=none;fillColor=none;" parent="VzrVMN0Bxp8ACoTBztBd-56" vertex="1">
          <mxGeometry x="530" y="125" width="40" height="30" as="geometry" />
        </mxCell>
        <mxCell id="VzrVMN0Bxp8ACoTBztBd-70" value="&lt;font style=&quot;font-size: 18px;&quot;&gt;border_broadcast_respond&lt;/font&gt;" style="text;html=1;align=center;verticalAlign=middle;resizable=0;points=[];autosize=1;strokeColor=none;fillColor=none;" parent="VzrVMN0Bxp8ACoTBztBd-56" vertex="1">
          <mxGeometry width="240" height="40" as="geometry" />
        </mxCell>
        <mxCell id="VzrVMN0Bxp8ACoTBztBd-71" value="&lt;font style=&quot;font-size: 18px;&quot;&gt;forward_broadcast_message&lt;/font&gt;" style="text;html=1;align=center;verticalAlign=middle;resizable=0;points=[];autosize=1;strokeColor=none;fillColor=none;container=0;" parent="1" vertex="1">
          <mxGeometry x="-4165" y="2211" width="260" height="40" as="geometry" />
        </mxCell>
        <mxCell id="VzrVMN0Bxp8ACoTBztBd-72" value="" style="html=1;dashed=0;whiteSpace=wrap;container=0;" parent="1" vertex="1">
          <mxGeometry x="-4152.5" y="2243" width="546" height="99" as="geometry" />
        </mxCell>
        <mxCell id="VzrVMN0Bxp8ACoTBztBd-73" value="propagation_indicator=-1&lt;br&gt;targets_ids=-1&lt;br&gt;" style="html=1;dashed=0;whiteSpace=wrap;container=0;" parent="1" vertex="1">
          <mxGeometry x="-4147.5" y="2273" width="225" height="48" as="geometry" />
        </mxCell>
        <mxCell id="VzrVMN0Bxp8ACoTBztBd-74" value="build_border_message" style="html=1;dashed=0;whiteSpace=wrap;container=0;" parent="1" vertex="1">
          <mxGeometry x="-3892.5" y="2272" width="150" height="49" as="geometry" />
        </mxCell>
        <mxCell id="VzrVMN0Bxp8ACoTBztBd-75" style="edgeStyle=orthogonalEdgeStyle;rounded=0;orthogonalLoop=1;jettySize=auto;html=1;" parent="1" source="VzrVMN0Bxp8ACoTBztBd-73" target="VzrVMN0Bxp8ACoTBztBd-74" edge="1">
          <mxGeometry relative="1" as="geometry" />
        </mxCell>
        <mxCell id="VzrVMN0Bxp8ACoTBztBd-76" value="send_msg" style="html=1;dashed=0;whiteSpace=wrap;container=0;" parent="1" vertex="1">
          <mxGeometry x="-3702.5" y="2273" width="90" height="47" as="geometry" />
        </mxCell>
        <mxCell id="VzrVMN0Bxp8ACoTBztBd-77" style="edgeStyle=orthogonalEdgeStyle;rounded=0;orthogonalLoop=1;jettySize=auto;html=1;entryX=0;entryY=0.5;entryDx=0;entryDy=0;" parent="1" source="VzrVMN0Bxp8ACoTBztBd-74" target="VzrVMN0Bxp8ACoTBztBd-76" edge="1">
          <mxGeometry relative="1" as="geometry" />
        </mxCell>
        <mxCell id="VzrVMN0Bxp8ACoTBztBd-78" value="" style="group" parent="1" vertex="1" connectable="0">
          <mxGeometry x="-4990" y="2441" width="1283" height="173" as="geometry" />
        </mxCell>
        <mxCell id="VzrVMN0Bxp8ACoTBztBd-79" value="" style="html=1;dashed=0;whiteSpace=wrap;" parent="VzrVMN0Bxp8ACoTBztBd-78" vertex="1">
          <mxGeometry x="13" y="31" width="1270" height="142" as="geometry" />
        </mxCell>
        <mxCell id="VzrVMN0Bxp8ACoTBztBd-80" value="check_border_candidate_eligibility" style="html=1;dashed=0;whiteSpace=wrap;" parent="VzrVMN0Bxp8ACoTBztBd-78" vertex="1">
          <mxGeometry x="22" y="43" width="214" height="50" as="geometry" />
        </mxCell>
        <mxCell id="VzrVMN0Bxp8ACoTBztBd-81" value="Still border&lt;br&gt;candidate" style="shape=rhombus;html=1;dashed=0;whiteSpace=wrap;perimeter=rhombusPerimeter;" parent="VzrVMN0Bxp8ACoTBztBd-78" vertex="1">
          <mxGeometry x="272" y="33" width="80" height="70" as="geometry" />
        </mxCell>
        <mxCell id="VzrVMN0Bxp8ACoTBztBd-82" style="edgeStyle=orthogonalEdgeStyle;rounded=0;orthogonalLoop=1;jettySize=auto;html=1;entryX=0;entryY=0.5;entryDx=0;entryDy=0;" parent="VzrVMN0Bxp8ACoTBztBd-78" source="VzrVMN0Bxp8ACoTBztBd-80" target="VzrVMN0Bxp8ACoTBztBd-81" edge="1">
          <mxGeometry relative="1" as="geometry" />
        </mxCell>
        <mxCell id="VzrVMN0Bxp8ACoTBztBd-83" value="change_state_to&lt;br&gt;(Border)&amp;nbsp;" style="html=1;dashed=0;whiteSpace=wrap;" parent="VzrVMN0Bxp8ACoTBztBd-78" vertex="1">
          <mxGeometry x="392" y="43.5" width="100" height="50" as="geometry" />
        </mxCell>
        <mxCell id="VzrVMN0Bxp8ACoTBztBd-84" style="edgeStyle=orthogonalEdgeStyle;rounded=0;orthogonalLoop=1;jettySize=auto;html=1;" parent="VzrVMN0Bxp8ACoTBztBd-78" source="VzrVMN0Bxp8ACoTBztBd-81" target="VzrVMN0Bxp8ACoTBztBd-83" edge="1">
          <mxGeometry relative="1" as="geometry" />
        </mxCell>
        <mxCell id="VzrVMN0Bxp8ACoTBztBd-85" value="propagation_indicator=-1&lt;br&gt;targets_ids=-1&lt;br&gt;candidate: current id" style="html=1;dashed=0;whiteSpace=wrap;container=0;" parent="VzrVMN0Bxp8ACoTBztBd-78" vertex="1">
          <mxGeometry x="524" y="44.5" width="225" height="48" as="geometry" />
        </mxCell>
        <mxCell id="VzrVMN0Bxp8ACoTBztBd-86" style="edgeStyle=orthogonalEdgeStyle;rounded=0;orthogonalLoop=1;jettySize=auto;html=1;entryX=0;entryY=0.5;entryDx=0;entryDy=0;" parent="VzrVMN0Bxp8ACoTBztBd-78" source="VzrVMN0Bxp8ACoTBztBd-83" target="VzrVMN0Bxp8ACoTBztBd-85" edge="1">
          <mxGeometry relative="1" as="geometry" />
        </mxCell>
        <mxCell id="VzrVMN0Bxp8ACoTBztBd-87" value="build_border_message" style="html=1;dashed=0;whiteSpace=wrap;container=0;" parent="VzrVMN0Bxp8ACoTBztBd-78" vertex="1">
          <mxGeometry x="777" y="42.5" width="150" height="49" as="geometry" />
        </mxCell>
        <mxCell id="VzrVMN0Bxp8ACoTBztBd-88" style="edgeStyle=orthogonalEdgeStyle;rounded=0;orthogonalLoop=1;jettySize=auto;html=1;entryX=0;entryY=0.5;entryDx=0;entryDy=0;" parent="VzrVMN0Bxp8ACoTBztBd-78" source="VzrVMN0Bxp8ACoTBztBd-85" target="VzrVMN0Bxp8ACoTBztBd-87" edge="1">
          <mxGeometry relative="1" as="geometry" />
        </mxCell>
        <mxCell id="VzrVMN0Bxp8ACoTBztBd-89" value="send_msg" style="html=1;dashed=0;whiteSpace=wrap;container=0;" parent="VzrVMN0Bxp8ACoTBztBd-78" vertex="1">
          <mxGeometry x="960" y="44.5" width="90" height="47" as="geometry" />
        </mxCell>
        <mxCell id="VzrVMN0Bxp8ACoTBztBd-90" style="edgeStyle=orthogonalEdgeStyle;rounded=0;orthogonalLoop=1;jettySize=auto;html=1;" parent="VzrVMN0Bxp8ACoTBztBd-78" source="VzrVMN0Bxp8ACoTBztBd-87" target="VzrVMN0Bxp8ACoTBztBd-89" edge="1">
          <mxGeometry relative="1" as="geometry" />
        </mxCell>
        <mxCell id="VzrVMN0Bxp8ACoTBztBd-91" value="Set&lt;br&gt;Forming_Border_Broadcast_REC" style="html=1;dashed=0;whiteSpace=wrap;" parent="VzrVMN0Bxp8ACoTBztBd-78" vertex="1">
          <mxGeometry x="1080" y="42" width="200" height="50" as="geometry" />
        </mxCell>
        <mxCell id="VzrVMN0Bxp8ACoTBztBd-92" style="edgeStyle=orthogonalEdgeStyle;rounded=0;orthogonalLoop=1;jettySize=auto;html=1;" parent="VzrVMN0Bxp8ACoTBztBd-78" source="VzrVMN0Bxp8ACoTBztBd-89" target="VzrVMN0Bxp8ACoTBztBd-91" edge="1">
          <mxGeometry relative="1" as="geometry" />
        </mxCell>
        <mxCell id="VzrVMN0Bxp8ACoTBztBd-93" value="change_state_to&lt;br&gt;(Free&lt;span style=&quot;background-color: initial;&quot;&gt;)&amp;nbsp;&lt;/span&gt;" style="html=1;dashed=0;whiteSpace=wrap;" parent="VzrVMN0Bxp8ACoTBztBd-78" vertex="1">
          <mxGeometry x="387" y="113" width="100" height="50" as="geometry" />
        </mxCell>
        <mxCell id="VzrVMN0Bxp8ACoTBztBd-94" style="edgeStyle=orthogonalEdgeStyle;rounded=0;orthogonalLoop=1;jettySize=auto;html=1;entryX=0;entryY=0.5;entryDx=0;entryDy=0;" parent="VzrVMN0Bxp8ACoTBztBd-78" source="VzrVMN0Bxp8ACoTBztBd-81" target="VzrVMN0Bxp8ACoTBztBd-93" edge="1">
          <mxGeometry relative="1" as="geometry">
            <Array as="points">
              <mxPoint x="312" y="138" />
            </Array>
          </mxGeometry>
        </mxCell>
        <mxCell id="VzrVMN0Bxp8ACoTBztBd-95" value="YES" style="text;html=1;align=center;verticalAlign=middle;resizable=0;points=[];autosize=1;strokeColor=none;fillColor=none;" parent="VzrVMN0Bxp8ACoTBztBd-78" vertex="1">
          <mxGeometry x="342" y="42.5" width="50" height="30" as="geometry" />
        </mxCell>
        <mxCell id="VzrVMN0Bxp8ACoTBztBd-96" value="NO" style="text;html=1;align=center;verticalAlign=middle;resizable=0;points=[];autosize=1;strokeColor=none;fillColor=none;" parent="VzrVMN0Bxp8ACoTBztBd-78" vertex="1">
          <mxGeometry x="312" y="113" width="40" height="30" as="geometry" />
        </mxCell>
        <mxCell id="VzrVMN0Bxp8ACoTBztBd-97" value="&lt;font style=&quot;font-size: 18px;&quot;&gt;circle_completed&lt;/font&gt;" style="text;html=1;align=center;verticalAlign=middle;resizable=0;points=[];autosize=1;strokeColor=none;fillColor=none;" parent="VzrVMN0Bxp8ACoTBztBd-78" vertex="1">
          <mxGeometry width="160" height="40" as="geometry" />
        </mxCell>
        <mxCell id="VzrVMN0Bxp8ACoTBztBd-98" value="" style="group" parent="1" vertex="1" connectable="0">
          <mxGeometry x="-4980" y="2671" width="985.5" height="176" as="geometry" />
        </mxCell>
        <mxCell id="VzrVMN0Bxp8ACoTBztBd-99" value="" style="html=1;dashed=0;whiteSpace=wrap;" parent="VzrVMN0Bxp8ACoTBztBd-98" vertex="1">
          <mxGeometry x="7" y="36" width="978.5" height="140" as="geometry" />
        </mxCell>
        <mxCell id="VzrVMN0Bxp8ACoTBztBd-100" value="assign received&amp;nbsp;rec_propagation_indicator to class memeber&amp;nbsp;" style="html=1;dashed=0;whiteSpace=wrap;" parent="VzrVMN0Bxp8ACoTBztBd-98" vertex="1">
          <mxGeometry x="540" y="80" width="260" height="50" as="geometry" />
        </mxCell>
        <mxCell id="VzrVMN0Bxp8ACoTBztBd-101" value="Is the drone&amp;nbsp;&lt;br&gt;border&lt;br&gt;candidate" style="shape=rhombus;html=1;dashed=0;whiteSpace=wrap;perimeter=rhombusPerimeter;" parent="VzrVMN0Bxp8ACoTBztBd-98" vertex="1">
          <mxGeometry x="13" y="50" width="125" height="110" as="geometry" />
        </mxCell>
        <mxCell id="VzrVMN0Bxp8ACoTBztBd-102" value="&amp;nbsp;Id of the drone &lt;br&gt;that sent the &lt;br&gt;msg is&amp;nbsp;&lt;br&gt;in rec_propagation&lt;br&gt;_indicator" style="shape=rhombus;html=1;dashed=0;whiteSpace=wrap;perimeter=rhombusPerimeter;" parent="VzrVMN0Bxp8ACoTBztBd-98" vertex="1">
          <mxGeometry x="170" y="37.5" width="160" height="135" as="geometry" />
        </mxCell>
        <mxCell id="VzrVMN0Bxp8ACoTBztBd-103" style="edgeStyle=orthogonalEdgeStyle;rounded=0;orthogonalLoop=1;jettySize=auto;html=1;entryX=0;entryY=0.5;entryDx=0;entryDy=0;" parent="VzrVMN0Bxp8ACoTBztBd-98" source="VzrVMN0Bxp8ACoTBztBd-101" target="VzrVMN0Bxp8ACoTBztBd-102" edge="1">
          <mxGeometry relative="1" as="geometry" />
        </mxCell>
        <mxCell id="VzrVMN0Bxp8ACoTBztBd-104" style="edgeStyle=orthogonalEdgeStyle;rounded=0;orthogonalLoop=1;jettySize=auto;html=1;entryX=0;entryY=0.5;entryDx=0;entryDy=0;" parent="VzrVMN0Bxp8ACoTBztBd-98" source="VzrVMN0Bxp8ACoTBztBd-105" target="VzrVMN0Bxp8ACoTBztBd-100" edge="1">
          <mxGeometry relative="1" as="geometry" />
        </mxCell>
        <mxCell id="VzrVMN0Bxp8ACoTBztBd-105" value="candidate in msg is in&amp;nbsp;rec_candidate" style="shape=rhombus;html=1;dashed=0;whiteSpace=wrap;perimeter=rhombusPerimeter;" parent="VzrVMN0Bxp8ACoTBztBd-98" vertex="1">
          <mxGeometry x="359.5" y="40" width="140" height="130" as="geometry" />
        </mxCell>
        <mxCell id="VzrVMN0Bxp8ACoTBztBd-106" style="edgeStyle=orthogonalEdgeStyle;rounded=0;orthogonalLoop=1;jettySize=auto;html=1;entryX=0;entryY=0.5;entryDx=0;entryDy=0;" parent="VzrVMN0Bxp8ACoTBztBd-98" source="VzrVMN0Bxp8ACoTBztBd-102" target="VzrVMN0Bxp8ACoTBztBd-105" edge="1">
          <mxGeometry relative="1" as="geometry" />
        </mxCell>
        <mxCell id="VzrVMN0Bxp8ACoTBztBd-107" value="forward_border_message" style="html=1;dashed=0;whiteSpace=wrap;" parent="VzrVMN0Bxp8ACoTBztBd-98" vertex="1">
          <mxGeometry x="830" y="80" width="150" height="50" as="geometry" />
        </mxCell>
        <mxCell id="VzrVMN0Bxp8ACoTBztBd-108" style="edgeStyle=orthogonalEdgeStyle;rounded=0;orthogonalLoop=1;jettySize=auto;html=1;entryX=0;entryY=0.5;entryDx=0;entryDy=0;" parent="VzrVMN0Bxp8ACoTBztBd-98" source="VzrVMN0Bxp8ACoTBztBd-100" target="VzrVMN0Bxp8ACoTBztBd-107" edge="1">
          <mxGeometry relative="1" as="geometry" />
        </mxCell>
        <mxCell id="VzrVMN0Bxp8ACoTBztBd-109" value="YES" style="text;html=1;align=center;verticalAlign=middle;resizable=0;points=[];autosize=1;strokeColor=none;fillColor=none;" parent="VzrVMN0Bxp8ACoTBztBd-98" vertex="1">
          <mxGeometry x="130" y="80" width="50" height="30" as="geometry" />
        </mxCell>
        <mxCell id="VzrVMN0Bxp8ACoTBztBd-110" value="NO" style="text;html=1;align=center;verticalAlign=middle;resizable=0;points=[];autosize=1;strokeColor=none;fillColor=none;" parent="VzrVMN0Bxp8ACoTBztBd-98" vertex="1">
          <mxGeometry x="319.5" y="70" width="40" height="30" as="geometry" />
        </mxCell>
        <mxCell id="VzrVMN0Bxp8ACoTBztBd-111" value="NO" style="text;html=1;align=center;verticalAlign=middle;resizable=0;points=[];autosize=1;strokeColor=none;fillColor=none;" parent="VzrVMN0Bxp8ACoTBztBd-98" vertex="1">
          <mxGeometry x="492" y="80" width="40" height="30" as="geometry" />
        </mxCell>
        <mxCell id="VzrVMN0Bxp8ACoTBztBd-112" value="&lt;font style=&quot;font-size: 18px;&quot;&gt;find_msg_direction_forward&lt;/font&gt;" style="text;html=1;align=center;verticalAlign=middle;resizable=0;points=[];autosize=1;strokeColor=none;fillColor=none;" parent="VzrVMN0Bxp8ACoTBztBd-98" vertex="1">
          <mxGeometry width="240" height="40" as="geometry" />
        </mxCell>
        <mxCell id="VzrVMN0Bxp8ACoTBztBd-113" value="" style="group" parent="1" vertex="1" connectable="0">
          <mxGeometry x="-3322" y="1690" width="810" height="120" as="geometry" />
        </mxCell>
        <mxCell id="VzrVMN0Bxp8ACoTBztBd-114" value="" style="html=1;dashed=0;whiteSpace=wrap;" parent="VzrVMN0Bxp8ACoTBztBd-113" vertex="1">
          <mxGeometry x="7" y="16" width="803" height="104" as="geometry" />
        </mxCell>
        <mxCell id="VzrVMN0Bxp8ACoTBztBd-115" value="" style="group" parent="VzrVMN0Bxp8ACoTBztBd-113" vertex="1" connectable="0">
          <mxGeometry x="15" y="30" width="780" height="70" as="geometry" />
        </mxCell>
        <mxCell id="VzrVMN0Bxp8ACoTBztBd-116" value="Create:&amp;nbsp;&lt;br&gt;target_ids which is all 6 neigbors ids + current id" style="rounded=0;whiteSpace=wrap;html=1;" parent="VzrVMN0Bxp8ACoTBztBd-115" vertex="1">
          <mxGeometry width="210" height="70" as="geometry" />
        </mxCell>
        <mxCell id="VzrVMN0Bxp8ACoTBztBd-117" value="Create:&lt;br&gt;propagation_indicator=target_ids&lt;br&gt;&amp;nbsp;&amp;nbsp;" style="html=1;dashed=0;whiteSpace=wrap;" parent="VzrVMN0Bxp8ACoTBztBd-115" vertex="1">
          <mxGeometry x="245" width="215" height="70" as="geometry" />
        </mxCell>
        <mxCell id="VzrVMN0Bxp8ACoTBztBd-118" style="edgeStyle=orthogonalEdgeStyle;rounded=0;orthogonalLoop=1;jettySize=auto;html=1;" parent="VzrVMN0Bxp8ACoTBztBd-115" source="VzrVMN0Bxp8ACoTBztBd-116" target="VzrVMN0Bxp8ACoTBztBd-117" edge="1">
          <mxGeometry relative="1" as="geometry" />
        </mxCell>
        <mxCell id="VzrVMN0Bxp8ACoTBztBd-119" value="build_border_message" style="html=1;dashed=0;whiteSpace=wrap;" parent="VzrVMN0Bxp8ACoTBztBd-115" vertex="1">
          <mxGeometry x="495" width="150" height="70" as="geometry" />
        </mxCell>
        <mxCell id="VzrVMN0Bxp8ACoTBztBd-120" style="edgeStyle=orthogonalEdgeStyle;rounded=0;orthogonalLoop=1;jettySize=auto;html=1;entryX=0;entryY=0.5;entryDx=0;entryDy=0;" parent="VzrVMN0Bxp8ACoTBztBd-115" source="VzrVMN0Bxp8ACoTBztBd-117" target="VzrVMN0Bxp8ACoTBztBd-119" edge="1">
          <mxGeometry relative="1" as="geometry" />
        </mxCell>
        <mxCell id="VzrVMN0Bxp8ACoTBztBd-121" value="send_msg" style="html=1;dashed=0;whiteSpace=wrap;" parent="VzrVMN0Bxp8ACoTBztBd-115" vertex="1">
          <mxGeometry x="680" y="10" width="100" height="50" as="geometry" />
        </mxCell>
        <mxCell id="VzrVMN0Bxp8ACoTBztBd-122" style="edgeStyle=orthogonalEdgeStyle;rounded=0;orthogonalLoop=1;jettySize=auto;html=1;entryX=0;entryY=0.5;entryDx=0;entryDy=0;" parent="VzrVMN0Bxp8ACoTBztBd-115" source="VzrVMN0Bxp8ACoTBztBd-119" target="VzrVMN0Bxp8ACoTBztBd-121" edge="1">
          <mxGeometry relative="1" as="geometry" />
        </mxCell>
        <mxCell id="VzrVMN0Bxp8ACoTBztBd-123" value="&lt;font style=&quot;font-size: 18px;&quot;&gt;Fire_bordr_msg&lt;/font&gt;" style="text;html=1;align=center;verticalAlign=middle;resizable=0;points=[];autosize=1;strokeColor=none;fillColor=none;" parent="VzrVMN0Bxp8ACoTBztBd-113" vertex="1">
          <mxGeometry x="-3" y="-14" width="150" height="40" as="geometry" />
        </mxCell>
        <mxCell id="VzrVMN0Bxp8ACoTBztBd-124" value="" style="group" parent="1" vertex="1" connectable="0">
          <mxGeometry x="-3330" y="1808" width="210" height="190" as="geometry" />
        </mxCell>
        <mxCell id="VzrVMN0Bxp8ACoTBztBd-125" value="Create message contains:&lt;br&gt;-&amp;nbsp;Forming_border_header: &quot;F&quot;&lt;br&gt;-&amp;nbsp;propagation_indicator&lt;br&gt;-&amp;nbsp;target_ids&lt;br&gt;-&amp;nbsp; sender id&lt;br&gt;- candidate id&amp;nbsp;&amp;nbsp;&lt;br&gt;" style="html=1;dashed=0;whiteSpace=wrap;" parent="VzrVMN0Bxp8ACoTBztBd-124" vertex="1">
          <mxGeometry x="17.5" y="40" width="175" height="150" as="geometry" />
        </mxCell>
        <mxCell id="VzrVMN0Bxp8ACoTBztBd-126" value="&lt;font style=&quot;font-size: 18px;&quot;&gt;build_border_message&lt;/font&gt;" style="text;html=1;align=center;verticalAlign=middle;resizable=0;points=[];autosize=1;strokeColor=none;fillColor=none;" parent="VzrVMN0Bxp8ACoTBztBd-124" vertex="1">
          <mxGeometry x="3" y="10" width="210" height="40" as="geometry" />
        </mxCell>
        <mxCell id="VzrVMN0Bxp8ACoTBztBd-127" value="" style="group" parent="1" vertex="1" connectable="0">
          <mxGeometry x="-3067" y="1810" width="230" height="190" as="geometry" />
        </mxCell>
        <mxCell id="VzrVMN0Bxp8ACoTBztBd-128" value="Take message return:&lt;br&gt;&lt;div style=&quot;text-align: left;&quot;&gt;&lt;span style=&quot;background-color: initial;&quot;&gt;-&amp;nbsp;propagation_indicator&lt;/span&gt;&lt;/div&gt;&lt;div style=&quot;text-align: left;&quot;&gt;&lt;span style=&quot;background-color: initial;&quot;&gt;-&amp;nbsp;target_ids&lt;/span&gt;&lt;/div&gt;&lt;div style=&quot;text-align: left;&quot;&gt;&lt;span style=&quot;background-color: initial;&quot;&gt;-&amp;nbsp; sender id&lt;/span&gt;&lt;/div&gt;&lt;div style=&quot;text-align: left;&quot;&gt;&lt;span style=&quot;background-color: initial;&quot;&gt;- candidate id&amp;nbsp;&amp;nbsp;&lt;/span&gt;&lt;/div&gt;" style="html=1;dashed=0;whiteSpace=wrap;" parent="VzrVMN0Bxp8ACoTBztBd-127" vertex="1">
          <mxGeometry x="27.5" y="40" width="175" height="150" as="geometry" />
        </mxCell>
        <mxCell id="VzrVMN0Bxp8ACoTBztBd-129" value="&lt;font style=&quot;font-size: 18px;&quot;&gt;decode_border_message&lt;/font&gt;" style="text;html=1;align=center;verticalAlign=middle;resizable=0;points=[];autosize=1;strokeColor=none;fillColor=none;" parent="VzrVMN0Bxp8ACoTBztBd-127" vertex="1">
          <mxGeometry x="14" y="10" width="230" height="40" as="geometry" />
        </mxCell>
        <mxCell id="ws8c-MSOxb6e7_eGXcVB-2" value="" style="group" vertex="1" connectable="0" parent="1">
          <mxGeometry x="-3360" y="1340" width="876" height="131" as="geometry" />
        </mxCell>
        <mxCell id="ws8c-MSOxb6e7_eGXcVB-3" value="" style="group" vertex="1" connectable="0" parent="ws8c-MSOxb6e7_eGXcVB-2">
          <mxGeometry x="11" y="32" width="865" height="99" as="geometry" />
        </mxCell>
        <mxCell id="ws8c-MSOxb6e7_eGXcVB-4" value="" style="html=1;dashed=0;whiteSpace=wrap;" vertex="1" parent="ws8c-MSOxb6e7_eGXcVB-3">
          <mxGeometry width="865" height="99" as="geometry" />
        </mxCell>
        <mxCell id="ws8c-MSOxb6e7_eGXcVB-5" value="Current id &lt;br&gt;in&lt;br&gt;&amp;nbsp;tageted&amp;nbsp;" style="shape=rhombus;html=1;dashed=0;whiteSpace=wrap;perimeter=rhombusPerimeter;" vertex="1" parent="ws8c-MSOxb6e7_eGXcVB-3">
          <mxGeometry x="4" y="14" width="100" height="79" as="geometry" />
        </mxCell>
        <mxCell id="ws8c-MSOxb6e7_eGXcVB-6" value="Create&amp;nbsp;all_neigbors_id&lt;span style=&quot;background-color: initial;&quot;&gt;&amp;nbsp;&lt;/span&gt;" style="html=1;dashed=0;whiteSpace=wrap;" vertex="1" parent="ws8c-MSOxb6e7_eGXcVB-3">
          <mxGeometry x="149" y="30" width="150" height="48" as="geometry" />
        </mxCell>
        <mxCell id="ws8c-MSOxb6e7_eGXcVB-7" style="edgeStyle=orthogonalEdgeStyle;rounded=0;orthogonalLoop=1;jettySize=auto;html=1;entryX=0;entryY=0.5;entryDx=0;entryDy=0;" edge="1" parent="ws8c-MSOxb6e7_eGXcVB-3" source="ws8c-MSOxb6e7_eGXcVB-5" target="ws8c-MSOxb6e7_eGXcVB-6">
          <mxGeometry relative="1" as="geometry" />
        </mxCell>
        <mxCell id="ws8c-MSOxb6e7_eGXcVB-8" value="calculate_propagation_indicator_target" style="html=1;dashed=0;whiteSpace=wrap;" vertex="1" parent="ws8c-MSOxb6e7_eGXcVB-3">
          <mxGeometry x="324" y="30" width="225" height="48" as="geometry" />
        </mxCell>
        <mxCell id="ws8c-MSOxb6e7_eGXcVB-9" style="edgeStyle=orthogonalEdgeStyle;rounded=0;orthogonalLoop=1;jettySize=auto;html=1;entryX=0;entryY=0.5;entryDx=0;entryDy=0;" edge="1" parent="ws8c-MSOxb6e7_eGXcVB-3" source="ws8c-MSOxb6e7_eGXcVB-6" target="ws8c-MSOxb6e7_eGXcVB-8">
          <mxGeometry relative="1" as="geometry" />
        </mxCell>
        <mxCell id="ws8c-MSOxb6e7_eGXcVB-10" value="build_border_message" style="html=1;dashed=0;whiteSpace=wrap;" vertex="1" parent="ws8c-MSOxb6e7_eGXcVB-3">
          <mxGeometry x="579" y="29" width="150" height="49" as="geometry" />
        </mxCell>
        <mxCell id="ws8c-MSOxb6e7_eGXcVB-11" style="edgeStyle=orthogonalEdgeStyle;rounded=0;orthogonalLoop=1;jettySize=auto;html=1;" edge="1" parent="ws8c-MSOxb6e7_eGXcVB-3" source="ws8c-MSOxb6e7_eGXcVB-8" target="ws8c-MSOxb6e7_eGXcVB-10">
          <mxGeometry relative="1" as="geometry" />
        </mxCell>
        <mxCell id="ws8c-MSOxb6e7_eGXcVB-12" value="send_msg" style="html=1;dashed=0;whiteSpace=wrap;" vertex="1" parent="ws8c-MSOxb6e7_eGXcVB-3">
          <mxGeometry x="769" y="31" width="90" height="47" as="geometry" />
        </mxCell>
        <mxCell id="ws8c-MSOxb6e7_eGXcVB-13" style="edgeStyle=orthogonalEdgeStyle;rounded=0;orthogonalLoop=1;jettySize=auto;html=1;entryX=0;entryY=0.5;entryDx=0;entryDy=0;" edge="1" parent="ws8c-MSOxb6e7_eGXcVB-3" source="ws8c-MSOxb6e7_eGXcVB-10" target="ws8c-MSOxb6e7_eGXcVB-12">
          <mxGeometry relative="1" as="geometry" />
        </mxCell>
        <mxCell id="ws8c-MSOxb6e7_eGXcVB-14" value="YES" style="text;html=1;align=center;verticalAlign=middle;resizable=0;points=[];autosize=1;strokeColor=none;fillColor=none;" vertex="1" parent="ws8c-MSOxb6e7_eGXcVB-3">
          <mxGeometry x="89" y="18" width="50" height="30" as="geometry" />
        </mxCell>
        <mxCell id="ws8c-MSOxb6e7_eGXcVB-15" value="&lt;font style=&quot;font-size: 18px;&quot;&gt;forward_border_message&lt;/font&gt;" style="text;html=1;align=center;verticalAlign=middle;resizable=0;points=[];autosize=1;strokeColor=none;fillColor=none;" vertex="1" parent="ws8c-MSOxb6e7_eGXcVB-2">
          <mxGeometry width="230" height="40" as="geometry" />
        </mxCell>
        <mxCell id="ws8c-MSOxb6e7_eGXcVB-16" value="" style="group" vertex="1" connectable="0" parent="1">
          <mxGeometry x="-3355" y="1492.5" width="560" height="101" as="geometry" />
        </mxCell>
        <mxCell id="ws8c-MSOxb6e7_eGXcVB-17" value="" style="html=1;dashed=0;whiteSpace=wrap;" vertex="1" parent="ws8c-MSOxb6e7_eGXcVB-16">
          <mxGeometry x="10" y="29" width="550" height="72" as="geometry" />
        </mxCell>
        <mxCell id="ws8c-MSOxb6e7_eGXcVB-18" value="&lt;div&gt;&amp;nbsp; &amp;nbsp; &amp;nbsp;new_propagation_indicator= all_neighbor&lt;/div&gt;" style="html=1;dashed=0;whiteSpace=wrap;" vertex="1" parent="ws8c-MSOxb6e7_eGXcVB-16">
          <mxGeometry x="295" y="40" width="250" height="50" as="geometry" />
        </mxCell>
        <mxCell id="ws8c-MSOxb6e7_eGXcVB-19" value="&lt;font style=&quot;font-size: 18px;&quot;&gt;calculate_propagation_indicator_target&lt;/font&gt;" style="text;html=1;align=center;verticalAlign=middle;resizable=0;points=[];autosize=1;strokeColor=none;fillColor=none;" vertex="1" parent="ws8c-MSOxb6e7_eGXcVB-16">
          <mxGeometry width="330" height="40" as="geometry" />
        </mxCell>
        <mxCell id="ws8c-MSOxb6e7_eGXcVB-20" style="edgeStyle=orthogonalEdgeStyle;rounded=0;orthogonalLoop=1;jettySize=auto;html=1;entryX=0;entryY=0.5;entryDx=0;entryDy=0;" edge="1" parent="ws8c-MSOxb6e7_eGXcVB-16" source="ws8c-MSOxb6e7_eGXcVB-21" target="ws8c-MSOxb6e7_eGXcVB-18">
          <mxGeometry relative="1" as="geometry" />
        </mxCell>
        <mxCell id="ws8c-MSOxb6e7_eGXcVB-21" value="iterate in rec_propagation_indicator&amp;nbsp;and find unique element in&amp;nbsp;all_neighbor&lt;span style=&quot;background-color: initial;&quot;&gt;&lt;br&gt;&lt;/span&gt;" style="html=1;dashed=0;whiteSpace=wrap;" vertex="1" parent="ws8c-MSOxb6e7_eGXcVB-16">
          <mxGeometry x="20" y="40" width="248" height="50" as="geometry" />
        </mxCell>
      </root>
    </mxGraphModel>
  </diagram>
</mxfile>
